<?xml version="1.0" encoding="utf-8"?>
<!-- Generator: Adobe Illustrator 19.0.0, SVG Export Plug-In . SVG Version: 6.00 Build 0)  -->
<!DOCTYPE svg PUBLIC "-//W3C//DTD SVG 1.1//EN" "http://www.w3.org/Graphics/SVG/1.1/DTD/svg11.dtd">
<svg version="1.1" id="Layer_1" xmlns="http://www.w3.org/2000/svg" xmlns:xlink="http://www.w3.org/1999/xlink" x="0px" y="0px"
	 viewBox="0 0 1024 364.7" style="enable-background:new 0 0 1024 364.7;" xml:space="preserve">
<style type="text/css">
	.st0{clip-path:url(#SVGID_2_);fill-rule:evenodd;clip-rule:evenodd;fill:#C52D2F;}
	.st1{clip-path:url(#SVGID_4_);fill-rule:evenodd;clip-rule:evenodd;fill:#C52D2F;}
	.st2{clip-path:url(#SVGID_6_);fill-rule:evenodd;clip-rule:evenodd;fill:#C52D2F;}
	.st3{clip-path:url(#SVGID_8_);fill-rule:evenodd;clip-rule:evenodd;fill:#C52D2F;}
	.st4{clip-path:url(#SVGID_10_);fill-rule:evenodd;clip-rule:evenodd;fill:#4F5261;}
	.st5{clip-path:url(#SVGID_12_);fill-rule:evenodd;clip-rule:evenodd;fill:#C52D2F;}
	.st6{clip-path:url(#SVGID_14_);fill-rule:evenodd;clip-rule:evenodd;fill:#C52D2F;}
	.st7{clip-path:url(#SVGID_16_);fill-rule:evenodd;clip-rule:evenodd;fill:#4F5261;}
	.st8{clip-path:url(#SVGID_18_);fill-rule:evenodd;clip-rule:evenodd;fill:#4F5261;}
	.st9{clip-path:url(#SVGID_20_);fill-rule:evenodd;clip-rule:evenodd;fill:#C52D2F;}
	.st10{fill:#C52D2F;}
	.st11{fill:#FFFFFF;}
</style>
<g>
	<g>
		<g>
			<g>
				<defs>
					<path id="SVGID_1_" d="M440.9,218.6h-15.7v-37.1c0-6.9-1.1-12-3.3-15.1c-2.2-3.1-6-4.7-11.3-4.7c-6.3,0-11.2,2.3-14.6,6.8v50.1
						h-15.7V114.5H396v40c4.8-4.1,10.2-6.1,16.1-6.1c19.2,0,28.8,11.1,28.8,33.2V218.6z"/>
				</defs>
				<clipPath id="SVGID_2_">
					<use xlink:href="#SVGID_1_"  style="overflow:visible;"/>
				</clipPath>
				<rect x="371.3" y="105.5" class="st0" width="78.6" height="122.2"/>
			</g>
		</g>
		<g>
			<g>
				<defs>
					<path id="SVGID_3_" d="M468.3,184.2c0,6.9,1.6,12.4,4.9,16.5c3.3,4.1,7.9,6.1,13.7,6.1s10.4-2,13.7-6.1
						c3.3-4.1,4.9-9.6,4.9-16.5c0-6.9-1.6-12.4-4.9-16.5c-3.3-4-7.9-6-13.7-6s-10.4,2-13.7,6C469.9,171.8,468.3,177.3,468.3,184.2z
						 M452.1,184.2c0-5,0.8-9.7,2.4-14.1c1.6-4.4,3.9-8.2,6.9-11.4c3-3.2,6.7-5.7,11-7.6c4.3-1.9,9.1-2.8,14.4-2.8
						c5.3,0,10.1,0.9,14.3,2.8c4.3,1.9,7.9,4.4,10.9,7.6c3,3.2,5.3,7,7,11.4c1.7,4.4,2.5,9,2.5,14c0,5-0.8,9.7-2.4,14
						c-1.6,4.4-3.9,8.1-6.9,11.4c-3,3.2-6.7,5.8-11,7.6c-4.3,1.9-9.1,2.8-14.4,2.8c-5.4,0-10.2-0.9-14.5-2.8
						c-4.3-1.9-7.9-4.4-10.9-7.6c-3-3.2-5.3-7-6.9-11.3C452.9,194,452.1,189.3,452.1,184.2z"/>
				</defs>
				<clipPath id="SVGID_4_">
					<use xlink:href="#SVGID_3_"  style="overflow:visible;"/>
				</clipPath>
				<rect x="443.1" y="139.3" class="st1" width="87.5" height="89.7"/>
			</g>
		</g>
		<g>
			<g>
				<defs>
					<path id="SVGID_5_" d="M592.6,218.6h-14.5l-0.7-5.1c-4.6,4.4-10.1,6.5-16.5,6.5c-18.7,0-28.1-10.8-28.1-32.3v-38h15.7v36.9
						c0,6.9,1.2,12,3.5,15.2c2.3,3.2,6,4.8,11,4.8c6.1,0,10.7-2.1,13.9-6.4v-50.5h15.7V218.6z"/>
				</defs>
				<clipPath id="SVGID_6_">
					<use xlink:href="#SVGID_5_"  style="overflow:visible;"/>
				</clipPath>
				<rect x="523.8" y="140.6" class="st2" width="77.8" height="88.5"/>
			</g>
		</g>
		<g>
			<g>
				<defs>
					<path id="SVGID_7_" d="M636.2,222.7l-9.6-1.4c-3,0.9-5.4,2.3-7.2,4c-1.9,1.8-2.8,3.8-2.8,6.2c0,3.1,1.6,5.7,4.9,7.6
						c3.2,1.9,7.8,2.8,13.6,2.8s10.5-0.9,14.1-2.8c3.6-1.9,5.3-4.3,5.3-7.2c0-2.7-1.6-4.7-4.7-6
						C646.6,224.6,642.1,223.5,636.2,222.7z M632.4,160.3c-4.4,0-7.9,1.4-10.2,4.2c-2.4,2.8-3.5,6.5-3.5,11.2
						c0,4.7,1.2,8.5,3.6,11.2c2.4,2.8,5.8,4.2,10.3,4.2c4.4,0,7.9-1.4,10.2-4.2c2.4-2.8,3.5-6.6,3.5-11.3s-1.2-8.4-3.6-11.2
						C640.3,161.7,636.9,160.3,632.4,160.3z M635.5,253.3c-5.4,0-10.1-0.6-14.2-1.7c-4.1-1.1-7.5-2.6-10.1-4.5
						c-2.7-1.9-4.7-4.1-6.1-6.5s-2.1-5.1-2.1-7.8c0-6.8,3.9-11.9,11.7-15.4c-4.4-2.4-6.5-5.6-6.5-9.6c0-4.2,2.4-7.4,7.2-9.7
						c-7.3-5.1-11-12.5-11-22.4c0-3.9,0.6-7.5,1.9-10.9c1.3-3.4,3.1-6.3,5.6-8.7c2.4-2.4,5.3-4.3,8.8-5.7c3.5-1.4,7.4-2.1,11.7-2.1
						c6.2,0,11.6,1.5,16.3,4.4c4.4-2.2,9.6-3.3,15.4-3.3h3.5l-1.3,10.1H661c-1.6,0-3.3,0.1-5.3,0.4c3.2,4.5,4.9,9.7,4.9,15.5
						c0,3.7-0.6,7.2-1.9,10.5c-1.3,3.3-3.1,6.2-5.5,8.7c-2.4,2.5-5.3,4.5-8.8,5.9c-3.5,1.4-7.4,2.2-11.7,2.2c-2.9,0-5.6-0.3-8.1-0.8
						c-1.4,0.7-2.1,1.7-2.1,2.8c0,0.8,0.3,1.5,0.9,2.1c0.6,0.6,1.6,1.1,3,1.5c1.4,0.5,3.3,0.9,5.6,1.3c2.4,0.4,5.3,0.9,9,1.3
						c3.1,0.5,6.2,1.1,9.4,1.8c3.2,0.7,6.2,1.9,8.9,3.3c2.7,1.5,4.9,3.4,6.7,5.8c1.8,2.4,2.7,5.5,2.9,9.3c0,6.7-2.9,12-8.8,16
						C654.4,251.3,646.1,253.3,635.5,253.3z"/>
				</defs>
				<clipPath id="SVGID_8_">
					<use xlink:href="#SVGID_7_"  style="overflow:visible;"/>
				</clipPath>
				<rect x="593.9" y="139.3" class="st3" width="84.1" height="123"/>
			</g>
		</g>
		<g>
			<g>
				<defs>
					<path id="SVGID_9_" d="M828.5,161.7c-5.4,0-9.6,2-12.6,6c-3.1,4-4.6,9.5-4.6,16.5c0,7.2,1.5,12.8,4.6,16.7
						c3.1,3.9,7.3,5.9,12.6,5.9c5.6,0,10-2.1,13.3-6.3c3.3-4.2,4.9-9.6,4.9-16.3c0-6.7-1.6-12.1-4.9-16.2
						C838.6,163.8,834.2,161.7,828.5,161.7z M829.8,220c-7.1,0-13.2-2.3-18.3-6.8l-0.6,5.4h-14.6V114.5H812v39.8
						c4.5-4,10.5-6,17.8-6c5,0,9.5,0.9,13.6,2.8c4.1,1.9,7.5,4.4,10.4,7.6c2.9,3.2,5.1,7,6.7,11.4c1.6,4.4,2.4,9.1,2.4,14.1
						c0,5-0.8,9.7-2.3,14c-1.5,4.4-3.7,8.1-6.6,11.4c-2.9,3.2-6.3,5.8-10.4,7.6C839.5,219.1,834.9,220,829.8,220z"/>
				</defs>
				<clipPath id="SVGID_10_">
					<use xlink:href="#SVGID_9_"  style="overflow:visible;"/>
				</clipPath>
				<rect x="787.3" y="105.5" class="st4" width="84.6" height="123.6"/>
			</g>
		</g>
		<g>
			<g>
				<defs>
					<path id="SVGID_11_" d="M736.4,218.6h-15.7v-37.1c0-6.9-1.1-12-3.3-15.1c-2.2-3.1-6-4.7-11.3-4.7c-6.3,0-11.2,2.3-14.6,6.8
						v50.1h-15.7V114.5h15.7v40c4.8-4.1,10.2-6.1,16.1-6.1c19.2,0,28.8,11.1,28.8,33.2V218.6z"/>
				</defs>
				<clipPath id="SVGID_12_">
					<use xlink:href="#SVGID_11_"  style="overflow:visible;"/>
				</clipPath>
				<rect x="666.8" y="105.5" class="st5" width="78.6" height="122.2"/>
			</g>
		</g>
		<g>
			<g>
				<defs>
					<path id="SVGID_13_" d="M784.6,207.1l-1.4,12.9h-11.9c-3.1,0-5.7-0.5-8.1-1.4c-2.3-0.9-4.2-2.2-5.8-3.7
						c-1.5-1.6-2.7-3.4-3.4-5.6c-0.7-2.1-1.1-4.4-1.1-6.9v-40h-10.4l1.4-12.8h9v-20.5l15.7-1.7v22.2h16.1v12.8h-16.1v32.8
						c0,2.9,0.1,5.1,0.3,6.7c0.2,1.6,0.6,2.8,1.4,3.5c0.7,0.7,1.9,1.2,3.5,1.4c1.6,0.2,3.8,0.3,6.5,0.3H784.6z"/>
				</defs>
				<clipPath id="SVGID_14_">
					<use xlink:href="#SVGID_13_"  style="overflow:visible;"/>
				</clipPath>
				<rect x="733.4" y="118.4" class="st6" width="60.3" height="110.6"/>
			</g>
		</g>
		<g>
			<g>
				<defs>
					<path id="SVGID_15_" d="M887.4,184.2c0,6.9,1.6,12.4,4.9,16.5c3.3,4.1,7.9,6.1,13.7,6.1c5.8,0,10.4-2,13.7-6.1
						c3.3-4.1,4.9-9.6,4.9-16.5c0-6.9-1.6-12.4-4.9-16.5c-3.3-4-7.9-6-13.7-6c-5.8,0-10.4,2-13.7,6
						C889,171.8,887.4,177.3,887.4,184.2z M871.2,184.2c0-5,0.8-9.7,2.4-14.1c1.6-4.4,3.9-8.2,6.9-11.4c3-3.2,6.7-5.7,11-7.6
						c4.3-1.9,9.1-2.8,14.4-2.8c5.3,0,10.1,0.9,14.3,2.8c4.3,1.9,7.9,4.4,10.9,7.6c3,3.2,5.3,7,7,11.4c1.7,4.4,2.5,9,2.5,14
						c0,5-0.8,9.7-2.4,14c-1.6,4.4-3.9,8.1-6.9,11.4c-3,3.2-6.7,5.8-11,7.6c-4.3,1.9-9.1,2.8-14.4,2.8c-5.4,0-10.2-0.9-14.5-2.8
						c-4.3-1.9-7.9-4.4-10.9-7.6c-3-3.2-5.3-7-6.9-11.3C872,194,871.2,189.3,871.2,184.2z"/>
				</defs>
				<clipPath id="SVGID_16_">
					<use xlink:href="#SVGID_15_"  style="overflow:visible;"/>
				</clipPath>
				<rect x="862.2" y="139.3" class="st7" width="87.5" height="89.7"/>
			</g>
		</g>
		<g>
			<g>
				<defs>
					<path id="SVGID_17_" d="M984.9,207.1l-1.4,12.9h-11.9c-3.1,0-5.7-0.5-8.1-1.4c-2.3-0.9-4.2-2.2-5.8-3.7
						c-1.5-1.6-2.7-3.4-3.4-5.6c-0.7-2.1-1.1-4.4-1.1-6.9v-40h-10.4l1.4-12.8h9v-20.5l15.7-1.7v22.2H985v12.8h-16.1v32.8
						c0,2.9,0.1,5.1,0.3,6.7c0.2,1.6,0.6,2.8,1.4,3.5c0.7,0.7,1.9,1.2,3.5,1.4c1.6,0.2,3.8,0.3,6.5,0.3H984.9z"/>
				</defs>
				<clipPath id="SVGID_18_">
					<use xlink:href="#SVGID_17_"  style="overflow:visible;"/>
				</clipPath>
				<rect x="933.8" y="118.4" class="st8" width="60.3" height="110.6"/>
			</g>
		</g>
		<g>
			<g>
				<defs>
					<path id="SVGID_19_" d="M369.1,207.1l-1.4,12.9h-11.9c-3.1,0-5.7-0.5-8.1-1.4c-2.3-0.9-4.2-2.2-5.8-3.7
						c-1.5-1.6-2.7-3.4-3.4-5.6c-0.7-2.1-1.1-4.4-1.1-6.9v-40H327l1.4-12.8h9v-20.5l15.7-1.7v22.2h16.1v12.8h-16.1v32.8
						c0,2.9,0.1,5.1,0.3,6.7c0.2,1.6,0.6,2.8,1.4,3.5c0.7,0.7,1.9,1.2,3.5,1.4c1.6,0.2,3.8,0.3,6.5,0.3H369.1z"/>
				</defs>
				<clipPath id="SVGID_20_">
					<use xlink:href="#SVGID_19_"  style="overflow:visible;"/>
				</clipPath>
				<rect x="317.9" y="118.4" class="st9" width="60.3" height="110.6"/>
			</g>
		</g>
	</g>
	<g>
		<path class="st10" d="M153.2,69.1C90.1,69.1,39,120.3,39,183.4c0,63.1,51.1,114.2,114.2,114.2c63.1,0,114.2-51.1,114.2-114.2
			C267.4,120.3,216.3,69.1,153.2,69.1z"/>
		<g>
			<path class="st11" d="M123.7,190.9h-4.6v32.4h0c1.5,1.8,2.5,4.2,2.5,6.7c0,3.2-1.4,6.1-3.7,8l-2.8-2.8c1.6-1.2,2.6-3,2.6-5.2
				c0-3.6-2.9-6.4-6.4-6.4c-3.6,0-6.4,2.9-6.4,6.4c0,2.1,1,3.9,2.5,5.1l-2.8,2.8c-2.3-1.9-3.7-4.8-3.7-8c0-2.6,0.9-4.9,2.5-6.8
				v-50.6c0.1-1.9,1.7-3.5,3.6-3.5l92.7,0c1.9,0,3.5,1.6,3.6,3.5v50.6c1.6,1.8,2.5,4.2,2.5,6.8c0,3.2-1.4,6-3.7,8l-2.8-2.8
				c1.5-1.2,2.5-3,2.5-5.1c0-3.6-2.9-6.4-6.4-6.4c-3.6,0-6.4,2.9-6.4,6.4c0,2.1,1,4,2.6,5.2l-2.8,2.8c-2.3-1.9-3.7-4.8-3.7-8
				c0-2.6,0.9-4.9,2.5-6.7h0v-32.4h-4.6v68.5l3.1,1.8v5.6h-31v-5.6l3.1-1.8h0v-20.8h-9.2v20.8l3.1,1.8v5.6l-31,0.1v-5.6l3-1.8
				L123.7,190.9z"/>
			<path class="st11" d="M153.2,116.7c6.4,0,12.3,2.3,15.9,5.7l2.8-4c-4.5-4-11.2-6.6-18.7-6.6l0,0c-7.5,0-14.2,2.6-18.7,6.6
				l2.8,4.1C140.9,119,146.8,116.7,153.2,116.7"/>
			<g>
				<path class="st11" d="M153.4,106.4c7,0,13.6,2,18.5,5.7c1,0.8,1.9,1.5,2.7,2.4l2.8-4.1c-5.5-5.4-14.2-8.9-24-8.9l0,0
					c-10,0-18.9,3.7-24.4,9.3l2.9,4.1c0.9-1,1.9-1.9,3.1-2.8C139.8,108.4,146.4,106.4,153.4,106.4"/>
			</g>
			<g>
				<path class="st11" d="M153.2,96.4c11.2,0,21,4.1,26.9,10.3l2.8-4c-6.8-6.8-17.6-11.1-29.7-11.1l0,0c-12.1,0-22.9,4.4-29.8,11.1
					l2.8,4C132.1,100.5,142,96.4,153.2,96.4"/>
			</g>
			<g>
				<path class="st11" d="M144.3,144.2c0,1.7-1.4,3.1-3.1,3.1c-1.7,0-3.1-1.4-3.1-3.1c0-1.7,1.4-3.1,3.1-3.1
					C142.9,141.1,144.3,142.5,144.3,144.2z"/>
				<path class="st11" d="M176.7,127.7h-47.1c-1.9,0-3.5,1.6-3.5,3.5v30.7c0,1.9,1.6,3.5,3.5,3.5h47.1c1.9,0,3.5-1.6,3.5-3.5v-30.7
					C180.3,129.3,178.7,127.7,176.7,127.7z M141.2,150.2c-3.3,0-6-2.7-6-6c0-3.3,2.7-6,6-6c3.3,0,6,2.7,6,6
					C147.2,147.5,144.5,150.2,141.2,150.2z M165.3,150.2c-3.3,0-6-2.7-6-6c0-3.3,2.7-6,6-6c3.3,0,6,2.7,6,6
					C171.3,147.5,168.6,150.2,165.3,150.2z"/>
				<path class="st11" d="M168.4,144.2c0,1.7-1.4,3.1-3.1,3.1c-1.7,0-3.1-1.4-3.1-3.1c0-1.7,1.4-3.1,3.1-3.1
					C167,141.1,168.4,142.5,168.4,144.2z"/>
			</g>
		</g>
	</g>
</g>
</svg>
