<?xml version="1.0" encoding="UTF-8" standalone="no"?>
<svg width="258px" height="258px" viewBox="0 0 258 258" version="1.1" xmlns="http://www.w3.org/2000/svg" xmlns:xlink="http://www.w3.org/1999/xlink">
    <defs></defs>
    <g id="Page-1" stroke="none" stroke-width="1" fill="none" fill-rule="evenodd">
        <path d="M129,0.215 C57.878,0.215 0.219,57.869 0.219,129 C0.219,200.117 57.878,257.785 129,257.785 C200.122,257.785 257.781,200.117 257.781,129 C257.781,57.869 200.122,0.215 129,0.215" id="Fill-1" fill="#B42F32"></path>
        <path d="M95.793,137.472 L90.607,137.472 L90.607,174.038 L90.581,174.038 C92.328,176.092 93.389,178.746 93.389,181.647 C93.389,185.258 91.754,188.494 89.186,190.655 L85.985,187.457 C87.748,186.133 88.889,184.024 88.889,181.647 C88.889,177.635 85.636,174.381 81.623,174.381 C77.61,174.381 74.357,177.635 74.357,181.647 C74.357,184.004 75.48,186.1 77.221,187.428 L74.023,190.621 C71.477,188.461 69.857,185.241 69.857,181.647 C69.857,178.743 70.92,176.087 72.67,174.033 L72.67,117.023 C72.784,114.827 74.552,113.066 76.738,113.066 L181.262,113.079 C183.448,113.079 185.216,114.841 185.33,117.036 L185.33,174.046 C187.08,176.1 188.143,178.756 188.143,181.66 C188.143,185.252 186.523,188.475 183.977,190.635 L180.779,187.442 C182.52,186.114 183.643,184.018 183.643,181.66 C183.643,177.648 180.39,174.395 176.377,174.395 C172.364,174.395 169.111,177.648 169.111,181.66 C169.111,184.036 170.252,186.145 172.015,187.471 L168.814,190.668 C166.246,188.508 164.611,185.272 164.611,181.66 C164.611,178.76 165.672,176.106 167.419,174.051 L167.393,174.051 L167.393,137.485 L162.207,137.485 L162.207,214.67 L165.681,216.649 L165.681,222.924 L130.706,222.924 L130.706,216.649 L134.187,214.67 L134.192,214.67 L134.192,191.252 L123.803,191.252 L123.803,214.67 L127.275,216.649 L127.275,222.924 L92.373,222.983 L92.373,216.649 L95.788,214.67 L95.793,137.472" id="Fill-2" fill="#FFFFFF"></path>
        <path d="M129.02,53.85 C136.276,53.85 142.85,56.436 146.902,60.327 L150.105,55.763 C145.045,51.23 137.477,48.35 129.02,48.35 C120.54,48.35 112.954,51.244 107.895,55.798 L111.095,60.367 C115.144,56.453 121.738,53.85 129.02,53.85" id="Fill-3" fill="#FFFFFF"></path>
        <path d="M129.222,42.189 C137.152,42.189 144.548,44.48 150.048,48.64 C151.166,49.486 152.172,50.386 153.062,51.331 L156.27,46.75 C150.026,40.631 140.233,36.689 129.222,36.689 C117.946,36.689 107.948,40.822 101.73,47.195 L104.954,51.8 C105.944,50.683 107.094,49.624 108.395,48.64 C113.895,44.48 121.292,42.189 129.222,42.189" id="Fill-4" fill="#FFFFFF"></path>
        <path d="M129.019,31.002 C141.605,31.002 152.731,35.588 159.343,42.56 L162.528,38.021 C154.817,30.41 142.675,25.502 129.019,25.502 C115.339,25.501 103.182,30.424 95.472,38.057 L98.654,42.602 C105.261,35.606 116.408,31.002 129.019,31.002" id="Fill-5" fill="#FFFFFF"></path>
        <path d="M118.935,84.875 C118.935,86.781 117.388,88.332 115.471,88.332 C113.568,88.332 112.017,86.781 112.017,84.875 C112.017,82.952 113.568,81.409 115.471,81.409 C117.388,81.409 118.935,82.952 118.935,84.875" id="Fill-6" fill="#FFFFFF"></path>
        <path d="M142.616,91.634 C138.874,91.634 135.842,88.598 135.842,84.875 C135.842,81.135 138.874,78.108 142.616,78.108 C146.351,78.108 149.378,81.135 149.378,84.875 C149.378,88.598 146.351,91.634 142.616,91.634 L142.616,91.634 Z M115.471,91.634 C111.742,91.634 108.715,88.598 108.715,84.875 C108.715,81.135 111.742,78.108 115.471,78.108 C119.204,78.108 122.232,81.135 122.232,84.875 C122.232,88.598 119.204,91.634 115.471,91.634 L115.471,91.634 Z M155.554,66.235 L102.447,66.235 C100.27,66.235 98.488,68.002 98.488,70.189 L98.488,104.834 C98.488,107.007 100.27,108.785 102.447,108.785 L155.554,108.785 C157.739,108.785 159.512,107.007 159.512,104.834 L159.512,70.189 C159.512,68.002 157.739,66.235 155.554,66.235 L155.554,66.235 Z" id="Fill-7" fill="#FFFFFF"></path>
        <path d="M146.089,84.875 C146.089,86.781 144.52,88.332 142.616,88.332 C140.705,88.332 139.157,86.781 139.157,84.875 C139.157,82.952 140.705,81.409 142.616,81.409 C144.52,81.409 146.089,82.952 146.089,84.875" id="Fill-8" fill="#FFFFFF"></path>
    </g>
</svg>